<svg xmlns="http://www.w3.org/2000/svg" viewBox="0 0 21 21">
<path d="M16.895,11.64C16.96,11.269,17,10.89,17,10.5s-0.04-0.77-0.105-1.14l1.534-1.129l0.183-0.683l-1.5-2.598l-0.684-0.184
	l-1.738,0.762c-0.581-0.49-1.25-0.875-1.979-1.138L12.5,2.5L12,2H9L8.5,2.499L8.289,4.395C7.562,4.658,6.895,5.043,6.314,5.531
	L4.57,4.768L3.889,4.951l-1.5,2.598l0.184,0.684l1.533,1.129C4.041,9.731,4,10.111,4,10.5s0.041,0.769,0.105,1.139l-1.533,1.129
	l-0.184,0.684l1.5,2.598l0.682,0.184l1.744-0.764c0.58,0.488,1.248,0.873,1.975,1.137L8.5,18.501L9,19h3l0.5-0.5l0.21-1.892
	c0.729-0.263,1.398-0.648,1.979-1.138l1.738,0.762l0.684-0.184l1.5-2.598l-0.182-0.683L16.895,11.64z M10.5,14.15
	c-2.016,0-3.65-1.635-3.65-3.65s1.635-3.65,3.65-3.65c2.015,0,3.65,1.635,3.65,3.65S12.515,14.15,10.5,14.15z"/>
</svg>
